<svg xmlns="http://www.w3.org/2000/svg" viewBox="0 0 216 216"><defs><style>.cls-1{fill:#fff;}</style></defs><g id="Layer_2" data-name="Layer 2"><path class="cls-1" d="M168.35,152c-1.95-5.15-5.23-10.37-10.64-12.36a6.75,6.75,0,0,1-1.35-.64,28.71,28.71,0,0,0,.71-5.77,63.09,63.09,0,0,0-6-28.74C147.85,97.78,142.86,91.7,136.3,88c-.87-.57-3.07-1.46-4-2-1.25-.59-2.91-1-4.22-1.51a25.85,25.85,0,0,0-3.14-.69,31.82,31.82,0,0,0-8.07-16.08c-6.61-7-4.46-17.45-4.44-17.55l-.13,0c.22-.37.43-.74.62-1.12A41.2,41.2,0,0,0,117.14,27c-.41-6.31-2.69-15.86-9.71-15.78-1-2.65-3.27-3.94-6.69-3.7a11.72,11.72,0,0,0-9.54,6.27c-6,11.48-3,34.49-2.47,38.12C82,53.4,57,60.82,55.63,87.58a17.62,17.62,0,0,0,1.24,7.65,1.1,1.1,0,0,0,.26.58A12.92,12.92,0,0,0,58,97.42c1.82,3,5,6,10.12,6a17.08,17.08,0,0,0,5.08-.87c-2.83,5.13-4.94,10.82-4.38,16.22a19.69,19.69,0,0,1-3,1.81A17.71,17.71,0,0,0,58,126.38a24.43,24.43,0,0,0-5.52,11.69c-.28,2.1-.67,4.17-1,6.3a51.72,51.72,0,0,0,7.71,37.1c2.39,3.63,5,7.24,8.73,9.66a17.71,17.71,0,0,0,11.66,3.09,11.86,11.86,0,0,0,2.71,9.26c3.48,4.2,9.28,7.45,14.81,6.84a20.42,20.42,0,0,0,3.3-.88c5,1,8.67-.59,10.74-3.67,5.68-1.1,7.11-6.3,6.3-11.31a58,58,0,0,0,18.46-.43C153.9,190.85,175.63,171.76,168.35,152ZM115.88,34.44a47.71,47.71,0,0,1-1.45,7.23A34,34,0,0,1,111.07,50l-.12,0s0,.15-.06.32a16.35,16.35,0,0,1-3.49,4,24.33,24.33,0,0,0-3.26,4.12c.41-1.81,1.22-4.9,1.28-5.41s-2.77,5-2.79,4.91c-.83-5.63-5-7.81-6.13-17C94.45,24,99.34,15.19,108,13.25c1-.22,7.78-.24,5.25,17.34-2.13,14.73-6.27,16.53-6.36,17.78-.07,1-.25,2.7-.25,2.7,8.52-12.34,9.19-24.6,7.51-32.16C116,23.77,116.12,30.08,115.88,34.44ZM92.09,14.22a10.73,10.73,0,0,1,8.72-5.73c2.85-.2,4.72.74,5.59,2.78a11.07,11.07,0,0,0-2.3.58C90.93,16.54,89,32.31,89.94,44.44A53.78,53.78,0,0,1,90,51.62l-.29.06C89.21,48,86.36,25.24,92.09,14.22Zm49.25,175.54c-7.73,2.91-16.17,3.4-24.34,2.62a17.25,17.25,0,0,0-1.86-4.3c1.18,5.18,2.39,12.84-2.92,15.64a14.59,14.59,0,0,0,.57-7.75c-.38,6.68-3.11,12.37-9.75,12.24a8.39,8.39,0,0,0,3.6-4,9.85,9.85,0,0,1-5.37,3.86l-.65-.09-.06.31a22,22,0,0,1-3.62.69,12.26,12.26,0,0,1-6.22-1.43,19.16,19.16,0,0,1-6.83-5.28c-5.71-6.91-1.06-18.81,7.61-20.52,5.94-1.25,11.85,1.08,17.43,3.12-7.18-5.47-19.64-7.59-25.71.6A18.06,18.06,0,0,0,80,192.19C74,193,68.29,190,64.56,185.42A51.14,51.14,0,0,1,53,144.57c.25-2.08.61-4.19.86-6.3a23.27,23.27,0,0,1,5-11.11,16.71,16.71,0,0,1,7.28-5.55,17.46,17.46,0,0,0,4.16-3.06l.36-.09c0-.06,0-.14,0-.21,1-1,1.88-2,2.75-3-1,.74-1.91,1.52-2.87,2.28,0-.14,0-.28,0-.42-.22-5.13,1.4-10.11,3.59-14.77h0c.79-1.69,1.65-3.33,2.53-4.92l1.68-2.8c-1.49,2.08-3.07,4.41-4.51,6.89l0-.1c-8.28,3-12.71-.74-15-4.45A12.28,12.28,0,0,1,58,95.37a.53.53,0,0,1,.15-.26,6.89,6.89,0,0,1,1.57-.85,1.63,1.63,0,0,0,1-1.35,6.12,6.12,0,0,0-.26-1.8c-.23.55-.35,1.17-.53,1.62-.11.25-.18.3-.34.37l-.16.07h0l-.08,0a5.25,5.25,0,0,0-1.87.77,17,17,0,0,1-.84-6.33C58.07,60,85.5,53.51,89.92,52.65a27,27,0,0,1-1.33,6.44c4.06-6.7,2.16-14.78,2.47-22.15.31-7.17,1.93-15.08,7.39-20.06a18.55,18.55,0,0,1,6.36-3.8c-5.55,2.59-15.89,10.5-10.58,32.36a35.43,35.43,0,0,0,2,5.92,69.45,69.45,0,0,1,2.62,6.89,70.94,70.94,0,0,1,2.39,9.64c1.62-4.65,3.22-9.4,6.89-12.8a20.32,20.32,0,0,0,2.42-2.48c-.27,3.78.07,10.81,5.15,16.22a30.76,30.76,0,0,1,7.61,14.86c-7.88-.76-16.18,2-20.73,8.81,10.43-9.29,22.36-9.27,33.9-2,13.89,8.93,20.06,30.8,18.05,46.82a13.46,13.46,0,0,1-1.61-4.63c-.54,3.88.15,6.8,3.9,8.64,4.64,2.21,7.35,6.89,9.06,11.55C171.63,168.87,155.34,184.77,141.34,189.76Z"/><path class="cls-1" d="M70.78,79.83c.51-.62,1-.36,1-.36C82,84.61,83.63,72.89,83.63,72.89,71.61,67,70.78,79.83,70.78,79.83ZM79,73.21a5.24,5.24,0,0,1-.5.44.34.34,0,0,1,.1.33.63.63,0,0,1-.1.2l0,.06a.08.08,0,0,0,0,0s0,0,0,0,0,0,0,0v0h0a0,0,0,0,0,0,0,.51.51,0,0,1-.11.77.45.45,0,0,1-.68-.36.86.86,0,0,1,0-.16.41.41,0,0,1,.12-.2l-.05.06.05-.06h0a.21.21,0,0,1,0-.06h0a.9.9,0,0,1,0-.16.61.61,0,0,1,.07-.17.32.32,0,0,1-.23-.27.28.28,0,0,1,.13-.24l-.21.07c-.19.08-.36-.21-.21-.35A1.58,1.58,0,0,1,77.7,73a2.07,2.07,0,0,1,.34-.15,2.13,2.13,0,0,1,.71-.13A.3.3,0,0,1,79,73.21Z"/></g><g id="stripes"><path class="cls-1" d="M87.33,75a.92.92,0,0,0-.61-.45l0-.09a.2.2,0,0,0-.08-.26l-.15-.11.26-.15a.17.17,0,0,0,.08-.16,1.54,1.54,0,0,0-.66-1.08.28.28,0,0,0,0-.18l.21-.31c.1-.12.19-.24.3-.35l0-.07a2.09,2.09,0,0,0,.14-.17l0,0a.51.51,0,0,0,.17-.24,3.19,3.19,0,0,0,.19-.67.28.28,0,0,0,0-.22,1.42,1.42,0,0,0,.11-.33.66.66,0,0,0-.07-.48c0-.08-.5-.38-.51-.28,0-.21-.14-.43-.37-.36h0a.16.16,0,0,0-.25-.1l-.22.16a.23.23,0,0,0-.21-.19h0a.93.93,0,0,0-.27-.25.53.53,0,0,0,.14-.12c.23-.21,0-.51-.28-.46l-.22,0a.3.3,0,0,0-.2.21.78.78,0,0,1,0,.14,0,0,0,0,0,0,0s0,0,0,0v0a.23.23,0,0,0,.11.38c.24.06.56.29.59.55a1.4,1.4,0,0,1-.09.29c-.05.09.08.16.14.08a2.73,2.73,0,0,0,.13-.29.2.2,0,0,0,.17.08l.34,0a1.07,1.07,0,0,0,.14.16.81.81,0,0,0,.21.1c.09,0,.25,0,.33,0s.1.26.06.43a.24.24,0,0,0-.23.13,5,5,0,0,0-.25.64.71.71,0,0,0,0,.28.23.23,0,0,0-.18.08,6.16,6.16,0,0,0-.56.58h0a1.34,1.34,0,0,0-.63.45.41.41,0,0,0-.07.11.5.5,0,0,0-.27,0h0a8.58,8.58,0,0,0-1,.24l-.21.08c-.31,0-.61.08-.92.1a.3.3,0,0,0,0,.6H83a1.6,1.6,0,0,0-.76.61.46.46,0,0,0,.42.68,2.59,2.59,0,0,0,.9-.4,5.4,5.4,0,0,1,.88-.31,2,2,0,0,0,1.43-.87,1.46,1.46,0,0,0,.07-.19.94.94,0,0,1,.52.58l-.32.22a.17.17,0,0,0,0,.26l.21.19-.2.23a.25.25,0,0,0,.18.41c.69,0-.24.79-.37.94a.74.74,0,0,0-.19.84c.13.31.36.23.57.41l.12,0a1.43,1.43,0,0,1-.23.2.21.21,0,0,0-.15,0,.19.19,0,0,0-.26,0l-.17.11a.39.39,0,0,0-.2.06,4.12,4.12,0,0,0-.65.44h0l0,0-.07,0h0a.4.4,0,0,0,0,.6c0,.12-.11.24-.14.37a.19.19,0,0,0,.09.19,18.65,18.65,0,0,0-2.53,2.08.33.33,0,0,0,.16.54,1.58,1.58,0,0,0,.36.09c-1,.38-1.89.8-2.82,1.27h0a.36.36,0,0,0-.32.26h0a.33.33,0,0,0,.18.61.57.57,0,0,0,.55-.3l.28-.14c0,.31.29.59.59.39a3.37,3.37,0,0,0,1.07-.58.28.28,0,0,0,.23.06A4.62,4.62,0,0,0,83.63,83a.35.35,0,0,0-.21-.65s0,0,0,0l-.17-.07.34-.33a.32.32,0,0,0-.23-.54,1.55,1.55,0,0,1-.22,0,23.55,23.55,0,0,1,2.09-1.64.35.35,0,0,0,.13-.39l.09-.07c.08-.07,0-.2-.09-.2L85.07,79a2.31,2.31,0,0,1,.24-.29,3.62,3.62,0,0,0,.58-.38l0,0a.34.34,0,0,0,.21-.37,1.4,1.4,0,0,0,.6-.68c0-.14-.08-.26-.1-.38s0-.07,0-.06l0-.06a2.08,2.08,0,0,1,.34-.32A1.18,1.18,0,0,0,87.33,75Z"/><path class="cls-1" d="M80.46,84.94a.37.37,0,0,0-.32-.17l-.17,0a.76.76,0,0,0-.18.09,1.24,1.24,0,0,0-.2.1,3.34,3.34,0,0,0-.4.25l-.37.25a1.19,1.19,0,0,0-.45.52.39.39,0,0,0,.19.45.58.58,0,0,0,.14,0h0a3,3,0,0,0-.2.29.6.6,0,0,0-.07.35.09.09,0,0,0,.16.06l.1-.07a.1.1,0,0,1,0,0,.31.31,0,0,0,.09-.11.54.54,0,0,1,.09-.12s0,0,0,0l0,0,.06-.06.06-.09h0l0,0,.09-.12a1,1,0,0,0,.21-.26h0l.33-.24.35-.26a1.26,1.26,0,0,0,.42-.44A.36.36,0,0,0,80.46,84.94Z"/><path class="cls-1" d="M76.86,87.84l-.41.23h-.07l-.08,0h0l0,0c-.36.17-.7.37-1.06.53a6.15,6.15,0,0,0-1.14.66,3.47,3.47,0,0,0-.87.83s-.06,0-.07.06c-.25.43-.42,1-.7,1.36a5.82,5.82,0,0,1-1.1,1.06.24.24,0,0,0,0,.32,17.5,17.5,0,0,1-2.48,1.78c-.21.11-.42.23-.62.36a.29.29,0,0,0,0,.48l-1,.61c-.09.06,0,.22.08.17a14.18,14.18,0,0,0,3-1.46,10.62,10.62,0,0,0,1.18-1,2.37,2.37,0,0,0,.7-1l.16-.15a.25.25,0,0,0,0-.36c.15-.19.29-.39.44-.6a3.34,3.34,0,0,0,.72-1.43.22.22,0,0,0-.12-.21,2.5,2.5,0,0,1,1.35-.76l.56-.17a.22.22,0,0,0,.16,0c.37-.17.75-.3,1.13-.47l0,0h0l.08,0a.29.29,0,0,0,.13-.4l.25-.17a11.83,11.83,0,0,0,1.43-.9s0,0,0,0A6.2,6.2,0,0,0,76.86,87.84Z"/><path class="cls-1" d="M83.79,84a0,0,0,0,0-.05,0,2,2,0,0,0-.66.62c-.21.26-.44.5-.64.77a.33.33,0,0,0,0,.4l0,0a.75.75,0,0,0-.16.15c-.12.11-.24.21-.36.33l-.64.66A10.93,10.93,0,0,1,80,88c-.43.3-.87.57-1.29.88s-1,.65-.93,1.09c0,0,0,0,0,0l-.34.1a2.57,2.57,0,0,0-1.88.94,1.42,1.42,0,0,0-.19.48,4.05,4.05,0,0,1-.48,1c-.3.5-.62,1-.92,1.48a4.66,4.66,0,0,1-.5.75c-.17.2-.4.33-.58.51a15.07,15.07,0,0,1-1.1,1.16c-.41.32-.87.56-1.26.9a7.27,7.27,0,0,1-1.33.94.05.05,0,0,0,0,.1,14.91,14.91,0,0,0,2.6-1.1,4.69,4.69,0,0,0,2-1.94c.21-.52.49-1,.73-1.51s.43-1,.7-1.53A3.73,3.73,0,0,1,77,90.57a.27.27,0,0,0,.29.1h0c.19-.05.37-.12.55-.18a.29.29,0,0,0,.31.1l.33-.14a2.66,2.66,0,0,0,.82-.56.16.16,0,0,0-.12-.26c-.26,0-.51.09-.77.14l.17-.14a9,9,0,0,1,.82-.55c.57-.33,1.18-.61,1.73-1a6,6,0,0,0,1.52-1.57,2.1,2.1,0,0,0,.41-.8.36.36,0,0,0,0-.23c.14-.24.27-.49.41-.74A1.8,1.8,0,0,0,83.79,84Z"/><path class="cls-1" d="M92.68,74.21a.4.4,0,0,0-.23-.12.33.33,0,0,0-.34-.34c.06-.17.11-.35.16-.52a10.71,10.71,0,0,0,.46-1.77.44.44,0,0,0-.8-.32,10,10,0,0,0-.78,1.65,7.74,7.74,0,0,0-.61,1.64.61.61,0,0,0,.92.65.38.38,0,0,0,.32.16l-.15.69a.48.48,0,0,0,0,.12.6.6,0,0,0-.09.15c-.3.55-.16,1-.28,1.61a1.72,1.72,0,0,1-.19.52.06.06,0,0,0,0,0,4.3,4.3,0,0,0-.61,1.09c-.21.53-.24,1.1-.45,1.64a10.27,10.27,0,0,1-.5,1.07A19.84,19.84,0,0,0,88,83.58a.33.33,0,0,0,0,.47c-.57.65-1.18,1.26-1.77,1.89h0a.21.21,0,0,0,.07.31,21.38,21.38,0,0,0-3,1.93.37.37,0,0,0,0,.63,1.81,1.81,0,0,0,.68.12,10.78,10.78,0,0,0-1.07.85,18.71,18.71,0,0,1-2,1.5,14.57,14.57,0,0,0-1.7,1.32,21.21,21.21,0,0,0-1.78,1.64.51.51,0,0,0,.75.7c.5-.53.91-1.13,1.42-1.66s1.07-1.09,1.59-1.65A8.13,8.13,0,0,1,83,90.15c.66-.39,1.3-.79,2-1.19a.3.3,0,0,0,.38,0,9.78,9.78,0,0,0,2.9-3.17.33.33,0,0,0,0-.43l.11-.15a.26.26,0,0,0-.2-.43c.13-.18.27-.36.4-.55a.22.22,0,0,0,.06-.16c.42-.51.88-1,1.24-1.54h0a3.45,3.45,0,0,0,.72-1,6.24,6.24,0,0,0,.41-1.4c.08-.43.08-.85.16-1.26.19-.18.42-.35.58-.53.43-.47.37-.86.51-1.44s.6-.89.75-1.41A1.32,1.32,0,0,0,92.68,74.21ZM84.87,87.86v0h0Zm.26.27a.41.41,0,0,0-.17-.22.22.22,0,0,0,.14,0l.06,0h0l.29-.16Z"/><path class="cls-1" d="M71.19,66.07a0,0,0,0,0-.07,0,2.25,2.25,0,0,0-.28.47.14.14,0,0,1,0,.06,2.56,2.56,0,0,0-.56-1.47s-.09,0-.09,0c0,.86.11,1.69,0,2.55,0,.19-.08.37-.12.55a1.94,1.94,0,0,0,0-.34,3.06,3.06,0,0,0-.26-1,.14.14,0,0,0-.25,0c-.07.31,0,.65-.09,1l0,.21a.41.41,0,0,0-.16,0s0,0,0,0a.2.2,0,0,0-.15-.2c-.46-.11-.54.48-.6.79A10.28,10.28,0,0,1,68.11,70a7.63,7.63,0,0,1-.59,1.22,6.09,6.09,0,0,0-.66,1.2c-.06.16.15.28.28.21a2.52,2.52,0,0,0,.9-1,9.13,9.13,0,0,0,.56-1.13,1.59,1.59,0,0,0-.07.2.45.45,0,0,0,.32.64c-.29.93-.62,1.84-1,2.74-.09.2.19.37.3.17s.24-.5.37-.74v0a8.76,8.76,0,0,0-.08,1c-.1.29-.19.57-.3.86s.3.46.47.28a5.14,5.14,0,0,0,.06.55.3.3,0,0,0,.59,0c0-.71.16-1.43.18-2.14,0-.54,0-1.08,0-1.62,0-.1.07-.2.11-.31L70,70.84a2.45,2.45,0,0,0,.58-1.06,9.09,9.09,0,0,0,.4-1.25,8.86,8.86,0,0,0,.23-1.25c0-.21,0-.42,0-.62A1.47,1.47,0,0,0,71.19,66.07Z"/><path class="cls-1" d="M87.48,63.87a.69.69,0,0,0-.2,0,1.77,1.77,0,0,0,.23-.64.26.26,0,0,0-.39-.21,2.47,2.47,0,0,0-.51.69,8.2,8.2,0,0,0-.43.76.35.35,0,0,0,.56.4,1.5,1.5,0,0,0-.19.48,4.56,4.56,0,0,1-.14.64,1.53,1.53,0,0,1-.24.57.18.18,0,0,0,.22.27.9.9,0,0,0,.49-.54c.07-.22.08-.47.13-.7a2.05,2.05,0,0,1,.23-.67c.08-.12.17-.23.24-.34l.09-.18a1.06,1.06,0,0,1,.06-.19A.23.23,0,0,0,87.48,63.87Z"/><path class="cls-1" d="M85,55a1.28,1.28,0,0,0,.66-.51,2,2,0,0,0-.58.46l.54-.07a.26.26,0,0,0-.07.16c0,.06.1.11.14.06"/><path class="cls-1" d="M87.26,53.64a.37.37,0,0,0-.44-.2l-.44.12a.36.36,0,0,0-.37-.1l-.83.31a8.48,8.48,0,0,0-.88.35s0,0-.07.05l-.15,0h0a.37.37,0,0,0-.37,0c-.58.21-1.16.38-1.74.55s-1.23.34-1.85.49a.35.35,0,0,0-.23.5c-.45.12-.87.33-1,.76a.65.65,0,0,0,0,.34c-.15.12-.3.25-.46.36,0,0,0-.11,0-.09l-.4.2a.32.32,0,0,0-.18.06l-.38.25-.46.27c-.24.14-.49.29-.73.45l.05-.07c.11-.16-.12-.38-.28-.27l-.58.42c0-.28-.28-.57-.57-.36l-2.71,1.9a25.37,25.37,0,0,0-2.49,1.88c-.19.18.06.43.26.33a11.8,11.8,0,0,0,1.38-.8c-.06.07-.13.14-.18.21s.06.52.28.35c.78-.62,1.61-1.19,2.42-1.77l1.25-.94-.06.07c-.13.18.14.42.32.3l.46-.33a.26.26,0,0,0,.15,0c.36-.18.7-.37,1.06-.56a.3.3,0,0,0,.21.1,1.4,1.4,0,0,0-.32.85c0,.32.84,1.25.53,1.5a.1.1,0,0,0,0,.17c.26.16.16.18,0,.41a1.72,1.72,0,0,0-.25.53.14.14,0,0,0,.14.18.72.72,0,0,0,.27-.09,2.74,2.74,0,0,1-.46.7c-.17.24-.36.46-.54.7A8.51,8.51,0,0,1,75.45,65c-.06,0,0,.12,0,.17l-.1.07c-.23.18-.48.35-.7.54l0,0a.3.3,0,0,0-.09-.13c.57-.84,1.13-1.69,1.64-2.58.13-.24-.23-.43-.38-.2-.39.59-.85,1.13-1.29,1.69a.22.22,0,0,0-.33,0l-.12.15.14-.21a.27.27,0,0,0-.08-.35l.2-.25a.36.36,0,0,0-.08-.54L74,63.37a.34.34,0,0,0-.29-.39c-.27,0-.53-.06-.8-.08a1.84,1.84,0,0,1-.36-.15.35.35,0,0,0-.33,0,.22.22,0,0,0-.18-.28,3.37,3.37,0,0,0-1.77.31,2.61,2.61,0,0,0,.27-.31c.07-.1,0-.21-.15-.18h0a2.54,2.54,0,0,0-.66.44c-.21.1-.42.2-.57.29l-1,.55c-.68.37-1.4.69-2.08,1.07h0a.17.17,0,0,0,.14.3,11.7,11.7,0,0,0,2.1-1c.17-.09.33-.2.49-.3l-.17.22c-.19.25.08.69.39.47a11.77,11.77,0,0,1,1.52-1.05.2.2,0,0,0,.12.07c.82.13,1.62.23,2.44.29l.4.18-.5.67a.32.32,0,0,0,.38.5.91.91,0,0,1,.14.42.33.33,0,0,0,.3.3c-.24.29-.48.58-.74.85a.34.34,0,0,0,.07.5l-.19.26L71.88,69c-.17.23.1.47.33.43-.17.38-.35.75-.5,1.14A.29.29,0,0,0,72,71L72,71a2.61,2.61,0,0,0-.47.76.4.4,0,0,0,.49.48,1.76,1.76,0,0,0,.92-.9,2.39,2.39,0,0,0,.26-.67l.06-.26s0,.06.05.06.4-.16.53-.27a1,1,0,0,0,.36-.49c0-.11-.12-.23-.21-.15a2.4,2.4,0,0,0-.39.39l-.2.17,0,0,0-.18s0-.06-.07,0a1.75,1.75,0,0,1-.48.46c-.06,0-.1.11-.16.16a1.26,1.26,0,0,1,.13-.26c.09-.14-.09-.27-.22-.21l0,0c.29-.66.58-1.32.91-2a.29.29,0,0,0-.06-.35l.06-.09c.07-.11.15-.22.22-.34a.32.32,0,0,0,.48,0,5.89,5.89,0,0,1,2.15-1.88.18.18,0,0,0-.14-.32l0,0c.1-.14.2-.28.32-.42a.16.16,0,0,0-.2-.25l-.17.1c.33-.42.68-.83,1-1.26A4.5,4.5,0,0,0,77.92,62c0-.18-.19-.24-.28-.11a.57.57,0,0,1-.11.11,1.18,1.18,0,0,1,.24-.52.07.07,0,0,0,0-.06.56.56,0,0,0-.17-.2.87.87,0,0,0,.07-.8c-.08-.22-.2-.26-.19-.56,0-.12.07-.27.09-.39.07-.27.19-.52.26-.78a.16.16,0,0,0,0-.12A8.26,8.26,0,0,0,80,57.11l0-.07c.5-.27,1-.53,1.53-.77a.39.39,0,0,0,.22.29.4.4,0,0,0,.29.45,1.5,1.5,0,0,0,.7,0,.38.38,0,0,0,.49.25l1.79-.53.12,0,0,0a.33.33,0,0,0,.16.55,1.37,1.37,0,0,0,.28.05.26.26,0,0,0,.22.28l.44,0-.19.35a.23.23,0,0,0,.18.34,3.28,3.28,0,0,0-.12,2.46.42.42,0,0,0,.43.26c0,.49,0,1,0,1.47s.57.36.59,0c.08-1.28,0-2.58.08-3.86a.24.24,0,0,0-.28-.24,2.5,2.5,0,0,1,.12-.45.26.26,0,0,0-.26-.32l0-.05a.22.22,0,0,0-.14-.32,2.3,2.3,0,0,1-.34-.12l0-.07a.33.33,0,0,0-.22-.37l.07-.07a.32.32,0,0,0,.06-.38.41.41,0,0,0,.07-.66l.08,0c.51-.22.29-1.05-.26-.85l-1.31.5.42-.26a.35.35,0,0,0,.17-.22l.62-.26,1-.44h0l.09,0A.37.37,0,0,0,87.26,53.64Z"/><path class="cls-1" d="M82.24,63.14a6,6,0,0,0,.86-1.75.22.22,0,0,0-.28-.27l-.3,0a.21.21,0,0,0-.26-.25,8.36,8.36,0,0,0,.49-.8,1.34,1.34,0,0,0,.11-.65,2.61,2.61,0,0,0-.11-.68c-.1-.31-.35-.51-.31-.88s-.41-.3-.44-.05a1.52,1.52,0,0,0,.47,1.2,1,1,0,0,1,0,1.34c-.15.24-.43.47-.47.76a.16.16,0,0,0,.07.17c0,.23.25.33.49.34a5.81,5.81,0,0,1-1.38,2.23l-.39.28q-.45.3-.9.57v0a.27.27,0,0,0,0,.46l-.29.2a.33.33,0,0,0,0,.56s0,0-.07.07a.6.6,0,0,1-.11.06.29.29,0,0,0-.24,0l-2.86,1.41c-.33.18,0,.63.3.48l.61-.28a.34.34,0,0,0,.2,0l-.33.21a.31.31,0,0,0-.12.35,2.07,2.07,0,0,1-.67.68.15.15,0,0,0,0,.28,4.48,4.48,0,0,1-1,.82c-.43.27,0,1,.41.67,1-.66,1.91-1.43,2.84-2.18a.27.27,0,0,0-.08-.44l.19-.15a.36.36,0,0,0,0-.56l.58-.52.29-.14a2.06,2.06,0,0,0,.6-.28,5,5,0,0,0,.59-.86.36.36,0,0,0-.09-.47l.56-.58s0,0,0,0l.17-.16a.26.26,0,0,0,.07-.23l.77-.56A.23.23,0,0,0,82.24,63.14Z"/><path class="cls-1" d="M98.4,72.8c.65.42,1.23-.42.95-1a3.28,3.28,0,0,0-1-1.13.85.85,0,0,0-.25-.13s0,0,0-.06l0-.07a.42.42,0,0,0,0-.63l-1-1.15a18.14,18.14,0,0,0-1.89-2.49.22.22,0,0,0,0-.31.1.1,0,0,1,0,0h0c-.19-.15-.37-.28-.56-.41a.31.31,0,0,0-.06-.16l-.28-.34a.24.24,0,0,0-.4.08,2.67,2.67,0,0,1-.43-.25.33.33,0,0,0-.24-.07l-.59-.32a6.82,6.82,0,0,1-.64-.39c-.17-.09-.37.15-.21.28a11.13,11.13,0,0,1,1,.86.27.27,0,0,0,.13.15l.13.09c-.14.44.53.87,1.09,1.15a.29.29,0,0,0-.07.41l1.22,1.54a.42.42,0,0,0-.21.35A.71.71,0,0,0,95,69a.45.45,0,0,0-.13.72l.2.14a.53.53,0,0,0,.23.42c.26.18.49.39.73.59l0,0h0a.7.7,0,0,0-.13.92l.22.33h0c0,.09.07.18.1.27a.33.33,0,0,0-.24.41,2.72,2.72,0,0,0,.32.69.22.22,0,0,0,0,.14,13,13,0,0,0,.63,1.71s.05.08.07.13l.16.58a1.08,1.08,0,0,0-.62-.15.3.3,0,0,0-.24.45,8.13,8.13,0,0,1,.54,1.25.3.3,0,0,0-.36.31l.09.67a.4.4,0,0,0-.29.41.38.38,0,0,0-.53.13,1.63,1.63,0,0,0-.15,1.27s0,0,0,0,0,.07,0,.11h0a2.07,2.07,0,0,0-.06,1h0a.45.45,0,0,0-.34.29,2.13,2.13,0,0,0-.07.27,1.1,1.1,0,0,0-.48-.07,1.07,1.07,0,0,0-.27.08c0-.48-.8-.46-.77,0,0,.29,0,.57,0,.86s0,.48,0,.72a.41.41,0,0,0-.45.37c-.13.6-.28,1.2-.41,1.81q-.09.32-.21.63c-.09-.53-.91-.5-1.09,0-.25.73-.51,1.45-.77,2.17a.25.25,0,0,0-.41,0c-.16.32-.34.63-.51,1a.43.43,0,0,0-.76,0A7.74,7.74,0,0,1,88,91.21a.45.45,0,0,0-.34-.12.14.14,0,0,0,0-.07c.09-.43-.54-.71-.74-.29s-.5,1-.78,1.44a.46.46,0,0,0-.82,0l0,0a.58.58,0,0,0-1,0l-1.14,1.57a.56.56,0,0,0-.49.18c-.32.37-.62.75-.92,1.12a.35.35,0,0,0-.59-.3q-1,1.09-2,2.13c0-.31-.44-.58-.67-.28-.8,1-1.64,2.05-2.51,3a.49.49,0,0,0-.2.16c0,.07-.1.13-.14.2-.28.31-.57.61-.86.91a.32.32,0,0,0-.43.18l-.25.51,0,.06c-.18.18-.35.38-.53.55a.37.37,0,0,0,0,.48c-.17.29-.33.58-.51.85s.37.87.67.5l.33-.43c-.07.16-.14.32-.2.48a.36.36,0,0,0,0,.09h0a1,1,0,0,1,0,.1c-.18.47.58.65.76.19s.29-.72.46-1.07.38-.77.59-1.15a.34.34,0,0,0,.38-.12,23,23,0,0,1,2.77-3,.64.64,0,0,0,1.11.41c.47-.58,1-1.15,1.43-1.73a.59.59,0,0,0,.52-.25c.44-.63.89-1.25,1.34-1.88a.55.55,0,0,0,.61-.08l.24-.28c0,.38.42.77.72.39s.6-.79.89-1.2a.43.43,0,0,0,.23.35.48.48,0,0,0,.64-.18l.32-.64a5.51,5.51,0,0,0,.29-.66.52.52,0,0,0,0-.21l.05,0a.36.36,0,0,0,.45-.09,7.81,7.81,0,0,0,.53-.64.55.55,0,0,0,1,.13,11.14,11.14,0,0,0,1.06-2,.61.61,0,0,0,1-.19l.24-.68a.52.52,0,0,0,.37-.14,5.42,5.42,0,0,0,.87-1.13.55.55,0,0,0,.69-.25,5.38,5.38,0,0,0,.49-1,2.11,2.11,0,0,0,1.09-.91.44.44,0,0,0,.57-.13c.18-.26.34-.54.5-.81a.34.34,0,0,0,.42-.18.42.42,0,0,0,0-.1h0c.1-.23.19-.46.27-.7a.44.44,0,0,0,.69-.34l0-1.23a.35.35,0,0,0,.29-.36,9.43,9.43,0,0,0-.17-1.85.31.31,0,0,0,.44-.28q0-.36,0-.72c.2.43.87.17.79-.32l-.12-.7a.36.36,0,0,0,.19-.41c-.08-.24-.17-.47-.25-.7a.37.37,0,0,0,.08-.38v-.06a.46.46,0,0,0,.33-.46A5.72,5.72,0,0,0,98.73,75a.57.57,0,0,0-.15-.22,9.31,9.31,0,0,0-.45-1.32l.05-.06a.53.53,0,0,0,0-.57.4.4,0,0,0-.43-.19l0,0a.63.63,0,0,0-.13-.26.61.61,0,0,0,.33.09C98.07,72.56,98.23,72.69,98.4,72.8Z"/><path class="cls-1" d="M83.53,124.41a9.77,9.77,0,0,1-2.39,1.31c-.36.09-.71.17-1,.28H80a.44.44,0,0,0-.54-.42,42.39,42.39,0,0,1-7.06.85.35.35,0,0,0-.37-.16l-.11,0h0l-.86.14h-.79a.36.36,0,0,0-.34.2,26.09,26.09,0,0,0-4.08,1A14.32,14.32,0,0,0,63,128.91a15.3,15.3,0,0,1-2.72,1.74,20.93,20.93,0,0,0-3,.76,6.52,6.52,0,0,0-2.19,1.78,10.32,10.32,0,0,0-1.49,2.6,9.35,9.35,0,0,0-.77,2.51c-.1,1-.09,2-.12,3,0,.59.89.56.91,0,0-.17,0-.34,0-.51,1.2-3.54,4.52-5.69,7.58-7.57a.32.32,0,0,0,.16-.25,6.53,6.53,0,0,0,.57-.43c.31-.26.26-.55.47-.86s1-.53,1.46-.69a28.6,28.6,0,0,1,6.24-1.53,29.17,29.17,0,0,1,3.09-.22c1,0,1.93.07,2.88,0a4.26,4.26,0,0,0,2.22-.74c.68-.51,1.06-1.28,1.87-1.63,1.35-.58,3-.47,3.9-1.88A.39.39,0,0,0,83.53,124.41Z"/><path class="cls-1" d="M82.27,118.67h-.64a.27.27,0,0,0-.28-.24,9.36,9.36,0,0,1-1.59,0c.27-.08.54-.17.81-.28l.09,0h0l.06,0c.28-.12.07-.59-.22-.48a6.54,6.54,0,0,1-3.14.15,11.74,11.74,0,0,0-2.9-.07,15.72,15.72,0,0,0-2.9,1,8.77,8.77,0,0,1-3.11.8,3.41,3.41,0,0,0-1.73,1.19,7.51,7.51,0,0,0-1.49.71.28.28,0,0,0,.3.48,8.51,8.51,0,0,1,4.28-1,5.63,5.63,0,0,0,2.07-.42c.64-.28,1.25-.61,1.91-.85a9.68,9.68,0,0,1,4.5-.43c1.38.19,2.7.59,4.08.18A.32.32,0,0,0,82.27,118.67Z"/><path class="cls-1" d="M157.46,127.86a2.29,2.29,0,0,0-.46-.74c-.18-.23-.37-.45-.58-.67a4.36,4.36,0,0,0-1.37-1,5.06,5.06,0,0,0-1.66-.41,5.89,5.89,0,0,0-1.19,0c-.49-.46-1-.92-1.48-1.37a3.1,3.1,0,0,0-2.32-.77,8.51,8.51,0,0,1-1.66-.23,8.77,8.77,0,0,0-1.34-.34.16.16,0,0,0-.09,0,12.76,12.76,0,0,0-3.06-.6c-1.31-.1-3.07,0-3.84-1.27a.19.19,0,0,0-.28,0s0,0,0-.06a.57.57,0,0,0-.08-.13l-.09-.1a1,1,0,0,0-.27-.17l-.17-.07a.36.36,0,0,0-.23,0,.29.29,0,0,0,0-.1.42.42,0,0,0-.11-.16.53.53,0,0,0-.31-.15l-.19,0-.18,0a.88.88,0,0,0-.41.23.52.52,0,0,0-.14.37.46.46,0,0,0,.08.25.29.29,0,0,0,.13.14.56.56,0,0,0,.17.09.37.37,0,0,0,.21,0,.39.39,0,0,0,.18-.06h0l.12,0,.13,0,.12-.06.1-.08s0,0,0,0a.57.57,0,0,0,.18.12l.09,0,.22.09-.07,0,.12.05.1,0H138l.11.07s0,0,.07,0a3.3,3.3,0,0,0,2.85,1.48,17.63,17.63,0,0,1,5.08,1,22.13,22.13,0,0,1,4.71,3c1.63,1.22,3.25,2.44,4.89,3.65a.35.35,0,0,0,.53-.43,2,2,0,0,1-.15-1.71h0a2.38,2.38,0,0,0,.65.72C157.1,128.75,157.56,128.28,157.46,127.86Zm-20.75-7.36a.43.43,0,0,0,.09-.1v0l-.06,0Z"/><path class="cls-1" d="M152.32,135.21a4.22,4.22,0,0,0-.79-.79,6.68,6.68,0,0,1-.83-1.09,10.06,10.06,0,0,0-.76-.94,4.2,4.2,0,0,0-1.23-.71,5.41,5.41,0,0,0-2.58-.57c-1,.08-2,.36-3.08.48a.47.47,0,0,0-.29.14.32.32,0,0,0-.28-.18c-1,0-1.77-.71-2.8-.59-.52.06-1,.29-1.54.33a5.49,5.49,0,0,1-.9,0s0,0,0,0c-.16-.39-1-.44-1.37-.42a.22.22,0,0,0,0,.44c1.1.22,2.16.95,3.3.41a1.93,1.93,0,0,1,1-.37,2.05,2.05,0,0,1,.82.31,7.28,7.28,0,0,0-.77.13.38.38,0,0,0,0,.73,19.49,19.49,0,0,0,6.63.54.46.46,0,0,0,.29-.13c.31.14.61.31.94.5a8.38,8.38,0,0,0,2,.82,3.54,3.54,0,0,1,1.19.52,8.3,8.3,0,0,0,.85.72A.16.16,0,0,0,152.32,135.21Z"/><path class="cls-1" d="M78,136.58a2.65,2.65,0,0,0-2.3-1.09,7.72,7.72,0,0,0-2.94.77c-.52.26-1,.56-1.55.81-.69.32-1.45.54-2.17.79a22.87,22.87,0,0,0-3.49,1.3,10.11,10.11,0,0,1-1.46.76,4.65,4.65,0,0,1-2,0,5,5,0,0,0-3,.79A14.29,14.29,0,0,0,54.63,145a19.74,19.74,0,0,0-1.51,2.88c-.41.88-1,2-2,2.32a.53.53,0,0,0-.36.5c0,1.86,0,3.7.17,5.54.08,1,1.61.95,1.53,0,0-.2,0-.39-.06-.59.93-1.14,2.55-1.71,3.48-2.87,1.3-1.62,1.86-3.68,2.93-5.44a8.68,8.68,0,0,1,2.27-2.37c.42-.32.85-.62,1.29-.91a6.86,6.86,0,0,0,1.41-1,12.38,12.38,0,0,1,1.12-1.17,10.67,10.67,0,0,1,1.63-1c.48-.27,1-.53,1.46-.78s1.18-.42,1.77-.66,1.11-.6,1.68-.87,1.23-.57,1.86-.82c1.29-.53,2.93-1.15,4.32-.65C77.89,137.17,78.17,136.8,78,136.58Z"/><path class="cls-1" d="M147.9,187.08a3,3,0,0,1-.88-1.38.7.7,0,0,0-.59-.49,2.29,2.29,0,0,0-.07-.36.77.77,0,0,0-.73-.52,2,2,0,0,0-.41-.2,8.35,8.35,0,0,0,0-1.66.85.85,0,0,0-1.22-.71l-.08-.2a3.84,3.84,0,0,0-.34-.78,5,5,0,0,0-1.14-1.34,13.56,13.56,0,0,0-1.57-1,21.22,21.22,0,0,0-2.09-1.35s-.06,0,0,0c.7.78,1.63,1.29,2.31,2.08a8.51,8.51,0,0,1,1.53,1.7c.35.71-.08,1.59.57,2.19a1.33,1.33,0,0,0,.38.23,9.41,9.41,0,0,0,.2,1.64.72.72,0,0,0,.87.48,7.27,7.27,0,0,0-.56,2.38.7.7,0,0,0,.66.68,1,1,0,0,0,1.09.15.72.72,0,0,0,.26,0,4.34,4.34,0,0,0,1.72-.55A.71.71,0,0,0,147.9,187.08Z"/><path class="cls-1" d="M72.45,149.94a15.62,15.62,0,0,1-4.65,1.44l-.87.17a.58.58,0,0,0-.28,0A9.55,9.55,0,0,0,63.18,153a13.18,13.18,0,0,1-2.29,1.34,3.54,3.54,0,0,0-1.8,1.5,17.23,17.23,0,0,1-1,2c-.51.65-1.49.72-2.13,1.24a8.41,8.41,0,0,0-1.64,2.23c-.64,1-1.31,2.1-1.85,3.19a1,1,0,0,0,1.66.92c.4-.65.81-1.29,1.21-1.93a9.87,9.87,0,0,1,1.3-1.84c1-1,2.46-1.51,3.46-2.57a4,4,0,0,0,1-2,1.78,1.78,0,0,1,.39-1,5.93,5.93,0,0,1,1.16-.82c1.48-.94,3.12-1.72,4.53-2.77a.57.57,0,0,0,.24-.39L68,152c1.58-.38,3.42-.7,4.48-2C72.48,150,72.47,149.93,72.45,149.94Z"/><path class="cls-1" d="M61,165.58a10.41,10.41,0,0,0-1.58,2.69s0-.07,0-.1a.43.43,0,0,0-.65-.35c-.66.41-.69,1.39-.82,2.08s-.22,1.3-.31,1.95a4.11,4.11,0,0,0-.21.74.85.85,0,0,0,0,.48,26,26,0,0,1-.53,2.74,5.46,5.46,0,0,0,0,2.78.83.83,0,0,0,1.5.16v0l0,0a.59.59,0,0,0,1.06-.47c-.11-.64-.33-1.25-.43-1.9a8.67,8.67,0,0,0-.15-2.54.55.55,0,0,0-.21-.33.92.92,0,0,0,.35-.49c.34-1.23.57-2.49.85-3.74a13.26,13.26,0,0,1,.54-1.76,9.62,9.62,0,0,0,.63-1.85A.1.1,0,0,0,61,165.58Z"/><path class="cls-1" d="M69.66,167.92c-.07-.15-.31-.09-.35.06-.11.42-.24.85-.38,1.27s-.57.64-.8.91A17.6,17.6,0,0,0,67,171.89a4.53,4.53,0,0,1-.75,1,10,10,0,0,1-1,.7,4.23,4.23,0,0,0-1.43,1.57,9,9,0,0,0-.67,4,17,17,0,0,1-.62,4.87.16.16,0,0,0,.24.18,1.25,1.25,0,0,0,.22.83c.35.5,1,.57,1.26,1.18A.87.87,0,0,0,66,186c0-1.71-.28-3.43-.34-5.14s-.28-3.15.48-4.58,1.4-2.59,2.05-3.91a16.58,16.58,0,0,0,.77-1.86C69.53,169.72,70.13,168.92,69.66,167.92Z"/><path class="cls-1" d="M129.57,193.52a13.15,13.15,0,0,1-3.42-4.73c-.8-1.76-1.69-3.26-3.56-4a5,5,0,0,1-2.29-1.36c-.49-.61-.86-1.31-1.32-1.94a4.45,4.45,0,0,0-1.59-1.46c-.7-.35-1.5-.13-2.21-.27-.23-.11-.45-.2-.67-.29-.4-.27-.75-.61-1.16-.87a7.3,7.3,0,0,0-1.47-.69,9.45,9.45,0,0,0-3.28-.62c-.1,0-.14.15,0,.19.78.36,1.62.58,2.42.87.36.28.7.56,1.08.81a18.18,18.18,0,0,1,1.64,1.25,35.87,35.87,0,0,0,3.07,1.92,6.58,6.58,0,0,1,2.13,2.63,20.35,20.35,0,0,1,1.47,3.31,10,10,0,0,1,.55,3.51,1.83,1.83,0,0,0,.32,1.47,2.36,2.36,0,0,0,1.37.56c2,.36,4.26-.15,6,1.05C129.37,195.41,130.27,194.14,129.57,193.52Zm-7.2-1.42a.63.63,0,0,0,.12.11A.19.19,0,0,1,122.37,192.1Z"/><path class="cls-1" d="M165.29,172l-1.5-2a8.32,8.32,0,0,0-.26-1,11.54,11.54,0,0,1-1-3,4.11,4.11,0,0,0-.24-1.67,7.29,7.29,0,0,0-.71-1.17,11.91,11.91,0,0,1-1.45-3.21.58.58,0,0,0-.63-.44,8.31,8.31,0,0,0-3.74-4.19.91.91,0,0,0-.44-1,17.31,17.31,0,0,0-3.35-1,4.47,4.47,0,0,0-1.17-.18.56.56,0,0,0-.56.39h-.05a10.81,10.81,0,0,0-2.64-1.06c-.53-.19-1-.4-1.57-.61s-1-.47-1.54-.22a1.24,1.24,0,0,1-.79.22c-.27,0-.54-.09-.82-.12-.43,0-.87-.08-1.3-.11a6,6,0,0,1-2.94-.86c-.32-.22-.69.3-.4.55a4.32,4.32,0,0,0,2.86.95c.61,0,1.23,0,1.84.05a1.71,1.71,0,0,1,1.18.3c.26.27.3.46.73.55.66.14,1.35.14,2,.29a18.11,18.11,0,0,1,2.07.58,4.77,4.77,0,0,1,.83.46,1.59,1.59,0,0,0,.68.14l1.71.15.54.19a.84.84,0,0,0,.55,1.28,6.53,6.53,0,0,1,2.24.93.61.61,0,0,0-.13,1l1.59,1.51c.46.43.84.94,1.28,1.39.11.15.23.3.33.46a5.39,5.39,0,0,1,.82,2.07c.13.92,0,1.86.16,2.77a8.52,8.52,0,0,1,.06,2.57,6.1,6.1,0,0,0,.07,2.48,11.6,11.6,0,0,0,2.59,4.34c.56.68,1.65,0,1.64-.73a13.77,13.77,0,0,0-.23-2,.65.65,0,0,0,.44-.52l.1.14C164.67,173.38,165.81,172.68,165.29,172Zm-3.8-1c0,.05,0,.1,0,.15a1.09,1.09,0,0,1-.05-.17Z"/><path class="cls-1" d="M167,162.42a3.29,3.29,0,0,0-1.11-2.07.54.54,0,0,0-.27-.09,3.83,3.83,0,0,0-1.93-2.17,8.1,8.1,0,0,1-2.68-2.5.14.14,0,0,0-.23.11,4.4,4.4,0,0,0,1.51,2.63c.41.41.7.87,1.08,1.3a4.37,4.37,0,0,1,.94,1.45,10.44,10.44,0,0,1,.66,3.87c0,.69-.16,1.38-.2,2.08s-.09,1.47-.14,2.2a1,1,0,0,0,1.85.45,10.27,10.27,0,0,0,.89-4.86A13.15,13.15,0,0,0,167,162.42Z"/><path class="cls-1" d="M160.33,145.67c-.13-.26-.26-.52-.38-.78l1.62.31c.93.18,1.29-1.25.36-1.43l-.43-.09a.78.78,0,0,0-.28-1.05,3.94,3.94,0,0,0-3.48-.48.8.8,0,0,0-.4.28,9.42,9.42,0,0,1-1.6.13,10.6,10.6,0,0,1-2.31-.76,6.35,6.35,0,0,0-2.7-.38,24.67,24.67,0,0,1-2.72.17,19.94,19.94,0,0,1-3.07-.45.18.18,0,0,0-.09.34,18.63,18.63,0,0,0,2.75.75,22.28,22.28,0,0,0,2.7.19A7.15,7.15,0,0,1,153,143a11.62,11.62,0,0,0,2.33,1,3.46,3.46,0,0,0,1.2.08c.47,0,1-.26,1.4,0a5.61,5.61,0,0,1,1.2,1.67,5,5,0,0,0,2.76,2.54.37.37,0,0,0,.34-.61C161.57,147,160.94,146.36,160.33,145.67Z"/><path class="cls-1" d="M155.34,117.58a1,1,0,0,0-.7-.21l-.25-.16-.6-.45c-.22-.17-.42-.35-.63-.53a.79.79,0,0,0,.6-.27c1.2-1.6-1-2.59-2.09-3.22-1.32-.73-2.65-1.43-4-2.15a1,1,0,0,0-.13-1.19c-.51-.56-1.41-.4-2-.2a11.27,11.27,0,0,1-3.4.61,20.53,20.53,0,0,1-3.58-.31.25.25,0,0,0-.12.48,10.18,10.18,0,0,0,4.51.62c.48,0,.95-.08,1.43-.14a8,8,0,0,0,2,1.14h0c.57.33,1.13.68,1.68,1a14.73,14.73,0,0,1,1.83,1.79c.78.87,1.48,1.8,2.27,2.66a16.4,16.4,0,0,0,1.24,1.26c.51.46.91.9,1.64.74a.84.84,0,0,0,.57-.8A.81.81,0,0,0,155.34,117.58Zm-.49-.09c.08,0,.08,0,0,0Z"/><path class="cls-1" d="M102.07,109.77c-1.44.48-2.87,1-4.33,1.44a.61.61,0,0,0-.16.09,23.11,23.11,0,0,0-7.06,2.92s0,0,0,0A20.89,20.89,0,0,1,87,115.51a.25.25,0,0,0-.14.36,27.83,27.83,0,0,1-3.29.53c-.42,0-.41.69,0,.66l.82-.08a.36.36,0,0,0,.37.33c1.89-.13,3.82-.17,5.7-.46a4.19,4.19,0,0,0,3.27-1.9.24.24,0,0,0-.41-.23A3.21,3.21,0,0,1,91.26,116l0,0a13,13,0,0,1,3.13-2.23,11.93,11.93,0,0,1,3.66-.64,5.5,5.5,0,0,0,3.2-.85h0l.08-.05a.41.41,0,0,0-.07-.57l.06,0a1.86,1.86,0,0,0,.22-.27.25.25,0,0,0,0-.25l.88-.49A.45.45,0,0,0,102.07,109.77Zm-1.61,2.07a6.62,6.62,0,0,1-2.17.3l1.41-.28a.25.25,0,0,0,.3.08l.46-.16S100.45,111.81,100.46,111.84Z"/><path class="cls-1" d="M123.7,80.63a20,20,0,0,0-1.42-3.49.42.42,0,0,0-.46-.24.19.19,0,0,1,0-.08c-.07-.37-.57-.34-.73-.07a.44.44,0,0,0-.59.23l0,0c-.33-.39-.66-.8-1-1.21a.37.37,0,0,0-.63.39c.21.43.43.85.65,1.28a.43.43,0,0,0-.09.1.38.38,0,0,0-.48.28l-.08.28a.68.68,0,0,0-.26.07,1,1,0,0,0-.46.4.86.86,0,0,0-.08.27l-.13-.2a.39.39,0,0,0-.72.22c0,.28,0,.56,0,.84-.07-.2-.14-.4-.22-.6-.15-.35-.73-.32-.71.11a7.79,7.79,0,0,1,0,1.08h0a.39.39,0,0,0-.75,0c-.1.44-.21.88-.32,1.32l-.15.06a.46.46,0,0,0-.56.21.47.47,0,0,0-.31,0c-.09-.3-.17-.6-.27-.89a.39.39,0,0,0-.18-.23.42.42,0,0,0-.8.17,12.29,12.29,0,0,1-.27,1.61.4.4,0,0,0-.52.23c-.09.23-.2.46-.31.68s-.51.26-.75.41a.54.54,0,0,0-.27.49.37.37,0,0,0-.18.15l-.33.51a.57.57,0,0,0-.5.21.6.6,0,0,0-.07.14.39.39,0,0,0-.59.25,1.93,1.93,0,0,1-.12.41.43.43,0,0,0-.68.11,10.79,10.79,0,0,1-1.63,2.06c-.28.27-.63.42-.92.68a3.35,3.35,0,0,0-.6.8c-.22.38.29.71.59.43l1-.86.09,0a3.33,3.33,0,0,0,.72-.63,13.13,13.13,0,0,1,1.86-1.29,8.28,8.28,0,0,1,1.25-.57.53.53,0,0,0,.77-.28,12.78,12.78,0,0,0,2.07-.83c.57-.31,1.07-.94,1.72-1.09s1.45,0,2.16-.18c.91-.18,6.88.13,6.83-.35A18.91,18.91,0,0,0,123.7,80.63Z"/><path class="cls-1" d="M152.5,108.21a22.4,22.4,0,0,0-4.77-2.75c-1.7-.71-3.58-1-5.22-1.85a22.27,22.27,0,0,0-2.34-1.18,11,11,0,0,0-2.79-.61c-1.74-.22-3.7-.37-5-1.75a29.57,29.57,0,0,1-1.69-2.45c-.16-.21-.35-.4-.52-.6.27.15.53.32.79.46a4.56,4.56,0,0,0,2,.63,8.55,8.55,0,0,1,1.34,0,3.89,3.89,0,0,1,1.17.54,14.46,14.46,0,0,0,4.7,1.37,21.13,21.13,0,0,1,4.13,1.24.5.5,0,0,0,.12.21l1,1.1a.59.59,0,0,0,.7.08l.9-.42.71.28a3.82,3.82,0,0,0,1,.36.43.43,0,0,0,.4-.32.44.44,0,0,0-.2-.47,1.91,1.91,0,0,0-.5-.19l-.43-.13.24-.11a.59.59,0,0,0,.1-.91,8.72,8.72,0,0,0-3.76-2.08c-.83-.25-1.66-.47-2.5-.69a3.92,3.92,0,0,0,1,.11c.61,0,.76-1,.12-1.11l-.36,0a.49.49,0,0,0-.37-.3l-.76-.18a.52.52,0,0,0-.25,0l-.24,0h-.07a3.62,3.62,0,0,0-.47-.13c-.4-.08-.81,0-1.19-.06s-.18,0-.36-.23a1.48,1.48,0,0,0-.24-.26c-.29-.23-.64-.35-.93-.58a18.65,18.65,0,0,0-1.73-1.47,1.3,1.3,0,0,0-.26-.14l1.24-.34a.51.51,0,0,0,.1-.93,4.55,4.55,0,0,0-.84-.27.61.61,0,0,0-.37-.2,29.4,29.4,0,0,1-5-.93,1,1,0,0,1,.12-.16c.21-.25.15-.77-.24-.81a16.23,16.23,0,0,0-2.51-.12,6.23,6.23,0,0,1-2.58,0,6.23,6.23,0,0,0-2.06-.63l-.66,0a.44.44,0,0,0-.35-.15,6.53,6.53,0,0,1-2.19-.31,11.1,11.1,0,0,0-1.77-.58,3.17,3.17,0,0,0-2.1.52l-.17.08c-.81.2-1.61.41-2.42.59a13.26,13.26,0,0,0-4.37,1.46c-.26.17-.16.65.18.62.58,0,1.16,0,1.74-.06a.21.21,0,0,0,.11.07c-1,.58-2,1.15-3.09,1.66a27.62,27.62,0,0,1-4.41,1.59,1.11,1.11,0,0,0-.56.31,1.1,1.1,0,0,0-.2.28,1,1,0,0,1-.61.42c-.81.28-1.63.52-2.44.79-1.63.53-3.25,1.09-4.87,1.64,0,0-.06,0-.08.07a1,1,0,0,0-.78.69.34.34,0,0,0,.17.37,3.74,3.74,0,0,0,.51.22l.08,0-.16.17a.42.42,0,0,0-.08.5s0,.06.08.09a.3.3,0,0,0,0,.13l-5.51,3.41c-1,.64-2.05,1.31-3.1,1.91a15.15,15.15,0,0,1-3.26,1,17.63,17.63,0,0,0-3,1.27c-.61.32-1.23.66-1.84,1a9.26,9.26,0,0,1,1.07-2,6.06,6.06,0,0,0,1.82-2.42.44.44,0,0,0,.7.13,11.06,11.06,0,0,0,1.93-2.11,15.78,15.78,0,0,0,1.2-2.31c.19-.15.37-.29.57-.42a.41.41,0,0,0,.16-.19l.28-.31a10.92,10.92,0,0,0,3.2-1.41A8.74,8.74,0,0,0,90.71,97a.48.48,0,0,0,.53-.21l.14-.21-.08.76c-.06.44.46.86.83.46A25.67,25.67,0,0,0,94.89,94a.42.42,0,0,0,.36-.13c.17-.21.3-.43.45-.65a.66.66,0,0,0,.81.26.9.9,0,0,0,.5-.72c.17.2.61.19.66-.14,0,0,0-.06,0-.1h0q.07-.56.12-1.11a.51.51,0,0,0,.72-.18l.65-1.31h.18a.45.45,0,0,0,.73,0,3.76,3.76,0,0,0,.81-1.54.42.42,0,0,0,.09-.16l.08-.26a.54.54,0,0,0,.87-.24c.13-.4.24-.79.34-1.19a.48.48,0,0,0,.26-.09,2.91,2.91,0,0,0,1-1.46.56.56,0,0,0,.28-.32c0-.09,0-.17.07-.25a2.51,2.51,0,0,0,.77.86.54.54,0,0,0,.8-.48,26.2,26.2,0,0,1-.16-3.31c1-.07,1.31-1.54,1.42-2.43a3.9,3.9,0,0,0,.8-1.41.4.4,0,0,0,.36-.26,9.32,9.32,0,0,0,.65-2.71c.13.49.27,1,.43,1.45a.56.56,0,0,0,.89.27,3.23,3.23,0,0,0,.67,1,.51.51,0,0,0,.84-.25c0-.08,0-.16,0-.24.18.26.35.51.56.76s.79,0,.78-.35c0-.68,0-1.35-.07-2,.17.46.31.93.44,1.41s.76.41.82,0a9.39,9.39,0,0,0-.15-3.3c.67-.19,1-1.13,1.22-1.9a.42.42,0,0,0,.55-.2c.31-.74,1.18-1.39.93-2.25a1,1,0,0,0-.82-.75.42.42,0,0,0-.07-.28l-.06-.09a.42.42,0,0,0-.06-.23,21.7,21.7,0,0,0-1.54-1.93l-.57-1.27c-.23-.53-.63-1.13-1.18-1.18,0-.13,0-.26-.06-.39a.45.45,0,0,0-.31-.35s0,0,0,0a.14.14,0,0,0-.28,0v0a.33.33,0,0,0-.2.27c0,.1,0,.19,0,.28a.4.4,0,0,0-.25.37,9.55,9.55,0,0,0,.75,2.89.51.51,0,0,0-.45.5c0,.35,0,.69,0,1v0a.53.53,0,0,0-1-.11.53.53,0,0,0-.79.45,15.18,15.18,0,0,1-.21,1.65A12.55,12.55,0,0,0,108.2,68c-.23-.32-.88-.34-1,.12a.6.6,0,0,0-.28.46,12.08,12.08,0,0,1-.1,1.21.51.51,0,0,0-.71.47,22.9,22.9,0,0,0,0,2.62.33.33,0,0,0-.36.3c0,.25-.05.5-.07.75a.3.3,0,0,0-.3.24l-.14.66-.1-.41c-.1-.42-.7-.28-.72.11a16.82,16.82,0,0,1-.51,3.4c0-.16,0-.33,0-.49a.44.44,0,0,0-.86-.21,27.53,27.53,0,0,0-.61,3.36.51.51,0,0,0-.41.33l-.06.17a.44.44,0,0,0-.59.31l-.51,2.54a.43.43,0,0,0-.56.32,23.26,23.26,0,0,1-.58,2.29h0a.55.55,0,0,0-.74,0,.6.6,0,0,0-.77.33,11.61,11.61,0,0,0-.41,1.39v-.52a.38.38,0,0,0-.75-.08,20.73,20.73,0,0,1-.61,2.14.29.29,0,0,0-.57,0v.71a.24.24,0,0,0-.26.19,1.36,1.36,0,0,1-.21.58l-.11.06a2.34,2.34,0,0,1-.15-1.06c0-.27-.43-.38-.53-.13-.52,1.24-.91,2.79-2.09,3.56,0-.17-.06-.34-.08-.52a.37.37,0,0,0-.63-.24,24.26,24.26,0,0,0-2.59,2.77,2.21,2.21,0,0,0-.08-.35.29.29,0,0,0-.52-.06,11.92,11.92,0,0,1-.6,1,.31.31,0,0,0-.25.15h0a4.9,4.9,0,0,0-.45.92l-.24.35h0L86,99a.36.36,0,0,0-.41,0,33.41,33.41,0,0,0-2.81,2.22.24.24,0,0,0-.36,0,3.76,3.76,0,0,0-.72,1.29c-.12.08-.17,0-.15-.1-.15-.28,0-1,0-1.28s-.63-.55-.83-.2a11.38,11.38,0,0,0-1,1.91.48.48,0,0,0-.66.17c-.36.73-.73,1.46-1.13,2.17-.19.33-.38.67-.58,1l-.3.5-.12.2,0,.07a.43.43,0,0,0-.41.15l-.33.48c0-.22,0-.45,0-.68a.24.24,0,0,0-.41-.16,3.19,3.19,0,0,0-.69.87.69.69,0,0,0-.53,1l0,0c-.17.48-.32,1-.51,1.43s-.28.62-.44.93l-1,1.35a.31.31,0,0,0-.06.24,3.61,3.61,0,0,0-.56,1s0,.07.07.06a2.86,2.86,0,0,0,1.27-1.14,1,1,0,0,0,.11-.17c.54-.56,1.08-1.1,1.64-1.65a25.32,25.32,0,0,1,2-1.72,1.34,1.34,0,0,1,0,.49.34.34,0,0,0,.18.36,5,5,0,0,0-.65.65,10.05,10.05,0,0,1-.82,1.12c-.62.59-1.65.82-1.66,1.81a.48.48,0,0,0,.65.65A56.57,56.57,0,0,1,92,106.91a.48.48,0,0,0,.27-.71.88.88,0,0,0-.48-.37.76.76,0,0,0-.16,0,6.41,6.41,0,0,1,1.34-.52,2,2,0,0,0,1.14-1,.45.45,0,0,0,0-.39,33.52,33.52,0,0,0,3.41-1.78,12.78,12.78,0,0,0,1.34-.87,2.5,2.5,0,0,0,.39-.41c.16-.23.21-.55.43-.72a6.44,6.44,0,0,1,1.61-.7l1.81-.75c2.56-1,5.14-2,7.7-3a12.78,12.78,0,0,0,1.75-.84,5.15,5.15,0,0,1,1.65-.76l.43-.07a.5.5,0,0,0,.55.07,2.06,2.06,0,0,1-.36.56c-.1.11-.19.22-.29.32s-.38.44-.58.65a8.29,8.29,0,0,1-1.36,1.21,10.47,10.47,0,0,1-2.4,1.11c-1.58.57-3.19,1.13-4.18,2.58-.26.38.2.77.56.7l.13,0a11,11,0,0,1-2.94,1.6A27.12,27.12,0,0,0,99,105.66a.51.51,0,0,0-.12.69,13.29,13.29,0,0,1-1.91.27c-1,.14-1.92.29-2.87.47a52,52,0,0,0-5.65,1.31c-3.18.95-6.34,2.63-7.88,5.71a.48.48,0,0,0,.76.56,14.1,14.1,0,0,1,5.09-2.47c.75-.25,1.51-.47,2.27-.67l.06,0a10.54,10.54,0,0,0,3.17-.17.47.47,0,0,0,.3-.62.43.43,0,0,0,.17-.12,24.58,24.58,0,0,0,5.1-1c2-.63,4-1.86,6.09-2.19a5.25,5.25,0,0,0,2.32-.9l2.74-2a50.07,50.07,0,0,1,5.3-3.62,11.76,11.76,0,0,1,5.32-1.38l1.81.09a.58.58,0,0,0,.19,0c.87,0,1.74.1,2.61.17s2,.2,3,.33l.31,0-3.12.08a.5.5,0,0,0,0,1,21.15,21.15,0,0,1,7.48,1.64.52.52,0,0,0,.44.76,3.34,3.34,0,0,1,2.23.84,3.9,3.9,0,0,0,1.91,1.09q2.71.84,5.47,1.53A.44.44,0,0,0,142,107a11.72,11.72,0,0,0,2.44.06c1.14-.1,2.24-.58,3.36-.1a15.32,15.32,0,0,1,2.63,1.38c.32.22.7.73,1.08.82a2.06,2.06,0,0,0,.78-.09A.53.53,0,0,0,152.5,108.21Zm-74.79.9c0-.08,0-.17,0-.26a.54.54,0,0,0,.43-.14A1.49,1.49,0,0,1,77.71,109.11Zm43.4-12.6h0a8.05,8.05,0,0,1-1.71.79l-.86.33s0,.07-.09.08l-2.7,1c-.27.13-.55.24-.81.38-.57.29-1.12.61-1.65.95a10.44,10.44,0,0,1-1.62.93.59.59,0,0,1-.6-1,6.8,6.8,0,0,1,2-1.14,6.63,6.63,0,0,1,.6-.29c.27-.1.58-.17.88-.27h0l.14,0a1.52,1.52,0,0,0,.82-.58,3.26,3.26,0,0,1,1.29-1.41c.2-.09.53-.17.85-.28l-.53,0a.43.43,0,0,1-.31-.71,3.13,3.13,0,0,1,2-1.11A.39.39,0,0,1,119,95L119,95a.53.53,0,0,1,.1.06l0,0c.39-.13.59.44.27.62.21,0,.38.29.18.47l-.19.2a7.78,7.78,0,0,1,1.41-.47.37.37,0,0,1,.3.66Z"/><path class="cls-1" d="M155.28,123.3c.27.51,1.08,0,.77-.48-.68-1.16-1.08-2.54-2.34-3.22a11.37,11.37,0,0,0-2.63-.71l-.34-.11-.11,0a.39.39,0,0,0-.18,0l-.31-.12a.4.4,0,0,0-.12-.1l-.53-.27c.71.12,1.42.26,2.12.44a.33.33,0,0,0,.24-.61,18.61,18.61,0,0,0-3-1.28,9.58,9.58,0,0,0-2.88-.58,19.92,19.92,0,0,1-3.16-2,7.21,7.21,0,0,0-3.44-1.22,39.6,39.6,0,0,1-7.13-1.28,29.23,29.23,0,0,1,3.62.16c.52.06.75-.69.2-.82a36.54,36.54,0,0,1-3.55-1.12,4.5,4.5,0,0,0,1.13-.49.38.38,0,0,0-.21-.7c-1.18,0-2.35-.18-3.52-.34a.36.36,0,0,0-.23-.11,5.17,5.17,0,0,1-3.38-1.8.45.45,0,0,0,0-.23l.14,0a4.22,4.22,0,0,0,.91.3.35.35,0,0,0,.25-.64,4,4,0,0,0-1.17-.4,4.27,4.27,0,0,1-.89-.55,13.76,13.76,0,0,0-1-1.32,1.13,1.13,0,0,0-.31-.26,4.66,4.66,0,0,1-.37-.92.34.34,0,0,0-.67.11v0a7.87,7.87,0,0,1-.26-1.09.32.32,0,0,0-.64,0,5.12,5.12,0,0,1-.1.54.55.55,0,0,0-.2.15c-.14-.26-.29-.52-.42-.78a.32.32,0,0,0-.43-.11l-.16.09s0-.05,0-.08a2.63,2.63,0,0,0,.08-.65c0-.48-.74-.46-.75,0,0,1.11-1,1.69-1.9,2.14a12.09,12.09,0,0,0-1.12.64.42.42,0,0,0-.49,0,10.63,10.63,0,0,1-4.11,1.51.47.47,0,0,0,0,.93,6.59,6.59,0,0,0,1.09,0,21.34,21.34,0,0,1-1.88,1,.42.42,0,0,0,0,.71,8.22,8.22,0,0,1-4.45,1.29.46.46,0,0,0,0,.91h.4a12.41,12.41,0,0,1-1.53.7.45.45,0,0,0-.26.22l-1.06.46a.44.44,0,0,0-.28.36l-1.22.38a.34.34,0,0,0-.05.61l-1.92.69c-2.3.82-4.6,1.65-6.82,2.67a13.45,13.45,0,0,0-3.28,2,5.35,5.35,0,0,1-1.64,1.19,10.44,10.44,0,0,1-2,.41,14.46,14.46,0,0,0-5,1.78l-.25.11c-.21.1-.42.23-.63.34a.25.25,0,0,0-.12.19A13,13,0,0,0,80.41,123c-.07,0,0,.17.1.12l0,0c.28-.19,1.07-.7,1.37-.87a.32.32,0,0,0,.17.06,5.25,5.25,0,0,0,.56,0c-.54.15-1.57.65-2.1.84a.25.25,0,0,0,.3.25c1.8-.29,3.58-.79,5.35-1.25s3.61-.94,5.41-1.47,3.38-.94,5.08-1.38c1.11-.17,2.22-.34,3.34-.49a.52.52,0,0,0,.47-.49l1.83-.48a.27.27,0,0,0,.11-.43,92.91,92.91,0,0,1,10.2-2.75c4.29-.9,9.63-2.39,12.07-2.45a13.34,13.34,0,0,1,2.6.84l.12.09a26.11,26.11,0,0,0,3.83,1.38.3.3,0,0,0,.19,0c3.19,1.13,6.39,2.24,9.62,3.21a.37.37,0,0,0,0,.29,2.23,2.23,0,0,0,1,.84,2.89,2.89,0,0,0,.65.5,2.49,2.49,0,0,0,.92.26.33.33,0,0,0,.35-.24l4,1.21-.46.07c-.32.06-.23.47,0,.56a25.36,25.36,0,0,1,7.84,4.07.34.34,0,1,0,.4-.55l-.76-.49a.54.54,0,0,0,.06-1l-.11-.07.17,0A1.51,1.51,0,0,0,155.28,123.3Zm-71.95-1.24.31-.15.26-.17a.49.49,0,0,0,.27.1Zm37.82-18.19c-.47.21-.94.41-1.39.63a.37.37,0,0,1,.45.57,5.53,5.53,0,0,0-.48.68c-.06.14-.13.29-.2.43l-.13.2a5.74,5.74,0,0,0-.38,1.1c-.15.72,0,1.55-.68,2.07a4.9,4.9,0,0,1-2.27.61h0a6.61,6.61,0,0,1-1,.32.4.4,0,0,1,0,.75,54.19,54.19,0,0,1-5.92,1.55l-1,.31-.41.19a4.85,4.85,0,0,1-1.55.58.22.22,0,0,1-.19-.07,26.09,26.09,0,0,1-3.82.87h0c-.12,0-.16-.18,0-.21l1.29-.31s0,0,0,0c1-.41,2-.74,3-1.23.18-.09.37-.16.56-.24.57-.29,1.19-.52,1.71-.78,1-.47,1.91-1,2.87-1.44l3-1.42c.56-.26,2.56-.83,2.2-1.7a.43.43,0,0,1,.19-.5,4.72,4.72,0,0,0,.53-.33l-.14-.21a.37.37,0,0,1,.12-.52c.3-.19.61-.37.92-.53a.35.35,0,0,1-.16-.65A5.68,5.68,0,0,1,121,103.5C121.23,103.49,121.34,103.78,121.15,103.87Zm8,5.12h0Zm5.93,4.82a19.64,19.64,0,0,1-1.95-.69c-.61-.21-1.24-.34-1.86-.53a7.25,7.25,0,0,1-3-1.57.31.31,0,0,1,0-.44l-.78-.32c-.23-.09-.18-.42,0-.54-.4-.07-.81-.13-1.21-.17-.13,0-.09-.2,0-.21a11.17,11.17,0,0,1,4.33.56c.3.1.29.61-.07.58l-1.27-.08a.31.31,0,0,1-.11.42l-.1.05a11.76,11.76,0,0,0,2.56,1.34c.61.27,1.22.53,1.85.76a15.5,15.5,0,0,1,1.66.58C135.29,113.62,135.19,113.85,135,113.81Z"/><path class="cls-1" d="M157,134.74l-.3-.38a.44.44,0,0,0-.05-.27,18.36,18.36,0,0,0-3.16-4.76,7.94,7.94,0,0,0-2.12-1.57c-1-.5-2.08-.71-3.11-1.12-2-.78-3.78-1.91-5.86-2.38a33.2,33.2,0,0,0-3.74-.45.33.33,0,0,0,0-.43c-1.73-1.57-4-1.5-6.22-1.72h-.06a7.8,7.8,0,0,1-3.53-1.05,2.46,2.46,0,0,1,.29-.09.2.2,0,0,0,.08-.33l-.29-.31a2.32,2.32,0,0,1,1,.09c.3.09.49-.26.37-.5-.82-1.51-2.68-2-4.15-2.58a12.08,12.08,0,0,1-4.57-3.57.39.39,0,0,0-.63.11.37.37,0,0,0-.38.18,4.31,4.31,0,0,1-2,1.67,5.75,5.75,0,0,0-.69.18l-2.09.56a.22.22,0,0,0,0,.42l1.46.36h0a30,30,0,0,1-14.64,3.47.25.25,0,0,0-.21.41,13.51,13.51,0,0,0-3.43.87l-5.89,2.17c-1.94.71-3.92,1.36-5.82,2.16a7.8,7.8,0,0,0-2,1.26,5.32,5.32,0,0,1-2.13,1.34c-.32.08-.24.5,0,.59a4,4,0,0,0,3-.26c1-.42,2-.93,3.07-1.36A36.63,36.63,0,0,1,96,125.38a71,71,0,0,1,13.26-.89,10,10,0,0,0,1.81,0,.42.42,0,0,0,0-.83H109.3l-.3,0c.63-.07,1.27-.09,1.91-.13a14,14,0,0,0,3.46-.67c2.17-.7,4.3-1.72,6.63-1.6a5.2,5.2,0,0,1,2.6.84c.89,2.31,3.14,3.74,5.44,4.47,3.16,1,6.58.68,9.73,1.78.49.17.8-.63.33-.85l-1-.44a18.41,18.41,0,0,1,6.31,1.65c.33.16.75-.3.41-.56l-.66-.5a8.57,8.57,0,0,1,1.26.46c.58.24,1.15.47,1.72.72a37.37,37.37,0,0,1,3.38,1.61,16,16,0,0,1,5.66,4.81C156.54,135.7,157.33,135.21,157,134.74Zm-71.18-6.9-.3.09c.25-.18,1.29-1.16,1.57-1.3.5-.23,2.5-1.11,3-1.31C89.42,125.64,86.47,127.46,85.81,127.84Zm44-4.11a2.6,2.6,0,0,1-2.48-.53,6.9,6.9,0,0,1-2.24-1.43c-.45-.43-.85-.93-1.28-1.38-.44-.2-.91-.33-1.35-.54a.3.3,0,0,1-.25,0c-2.77-.78-5.27.73-8,1.06h0l-.11,0c-.45,0-.55-.67-.12-.79s4.27-1.08,4-1.69c-.11-.28.15-.51.4-.55.61-.09,1-.77,1.43-1.12a.34.34,0,0,1,.3-.39,3.16,3.16,0,0,1,.32,0h0a.65.65,0,0,1-.15-.18.13.13,0,0,1,.07-.19.87.87,0,0,1,.17-.07h0v0l.13-.11-.06,0a1.21,1.21,0,0,0,.16-.16l0,.06,0-.06h0a.17.17,0,0,1-.12,0,.2.2,0,0,1-.09-.07.26.26,0,0,1,0-.17.24.24,0,0,1,.07-.12.39.39,0,0,1,.16-.1h.21a.29.29,0,0,1,.14.08s0,0,.06,0a.4.4,0,0,1,.15.14.44.44,0,0,1,.06.4.49.49,0,0,1-.08.18,2.79,2.79,0,0,1,.39.1,1.63,1.63,0,0,1,.65.44l.19,0a2.39,2.39,0,0,1,.92.22.24.24,0,0,1,0,.43h-.06a1.28,1.28,0,0,0-.37.14l-.06,0c.22.15.43.3.66.44l.48.29.17.09s0,0,0,0a.5.5,0,0,1,.25.3h0a2.4,2.4,0,0,0,.79.19l.56-.05a.34.34,0,0,1,.11.67,2.56,2.56,0,0,1-.82.07l-1.34.1a2.34,2.34,0,0,1,.55.27,10.5,10.5,0,0,1,1.41,1.26c.36.34.78.78,1.24,1.17a6.77,6.77,0,0,0,2.63.78A.3.3,0,0,1,129.85,123.73Z"/><path class="cls-1" d="M169.38,158.75c-.1-.08-.18-.17-.27-.25l.09-1.47h0a.39.39,0,0,0,.07-.62c-1.34-1.28-2.07-3-3.7-4a35.9,35.9,0,0,1-5.1-3.4c-1.35-1.18-2.38-2.95-4.2-3.44a13,13,0,0,0-2.85-.26,15.09,15.09,0,0,1-3.34-.52,13,13,0,0,0-3.33-.89c-1,0-2,.36-3,.45l-.36-.08a4.27,4.27,0,0,0-2-.33,1,1,0,0,0-.52.4,1.22,1.22,0,0,1-.84.61,16.4,16.4,0,0,1-2.62.28,9.39,9.39,0,0,1-2.59-.2c-.75-.17-1.46-.45-2.21-.6a10.33,10.33,0,0,1-3.12-1,.9.9,0,0,0-.06-.22c-.79-1.54-2.55-2-4.07-2.5-1.93-.66-3.88-1.28-5.8-2a10.7,10.7,0,0,0,2.39-4.4,6.2,6.2,0,0,0,3,.4,13.86,13.86,0,0,1,2.41,0,25.76,25.76,0,0,1,2.6.6c1.7.41,3.47.15,5.11.77s3.48,1.54,5.25,2.22c.41.16.63-.37.49-.67s-.45-1.15,0-1.36,1,.07,1.32.11l1.06.15c1.45.22,2.9.48,4.34.78s2.79.62,4.17,1c.73.19,1.46.38,2.18.59a6.83,6.83,0,0,0,2.07.47.38.38,0,0,0,.33-.51.4.4,0,0,0-.12-.47,11.66,11.66,0,0,0-2.19-1c-.76-.35-1.5-.74-2.23-1.16a12.2,12.2,0,0,0-2-1.21c-.72-.24-1.38.21-2.11.07a8.68,8.68,0,0,0-2-.39c-.93,0-1.87,0-2.81,0l-2.65.15-1.27,0a.48.48,0,0,0-.62-.44,5.34,5.34,0,0,1-3.74-.38,2.16,2.16,0,0,1,.72-.39c.24-.07.49-.12.73-.18a5.82,5.82,0,0,1,.59,0,.45.45,0,0,0,.49-.26l.49-.11a.15.15,0,0,0,0-.28l-.63-.14-.13-.06a5.2,5.2,0,0,0-1-.18c-.69-.16-1.38-.31-2.08-.43l-3.88-.7-1.94-.35c-.3-.05-1.69-.09-1.8-.45s.49-.3.7-.28l1,0,1.91.1c.66,0,.65-.87.12-1.07a9.87,9.87,0,0,0-3.59-.38,2.29,2.29,0,0,1-1.75-.86,7.32,7.32,0,0,0-1.24-1,7.49,7.49,0,0,0-1.33-.66,6.91,6.91,0,0,0-.77-.25,4.64,4.64,0,0,1-.74-.16c-.63-.33-.07-1.61.08-2.14s.41-1.33.61-2a.38.38,0,0,0-.69-.28,10.93,10.93,0,0,1-2.88,3.49A10.72,10.72,0,0,1,113,127c-.84.17-1.68.17-2.51.37s-1.91.44-2.84.73c-1.76.56-3.57.86-5.34,1.36a2.65,2.65,0,0,0-1.45.87,5.63,5.63,0,0,1-.65.81,2.66,2.66,0,0,1-1.22.55,19.31,19.31,0,0,1-5,.15,14.26,14.26,0,0,0-4.65.34,18.58,18.58,0,0,1-2,.75c-.77.15-1.17-.75-1.85-1-.94-.37-1.92-.64-2.88-1a13.3,13.3,0,0,0-2.24-.63,4.79,4.79,0,0,0-2.63.22.2.2,0,0,0-.3-.23,12,12,0,0,1-2.56,1.14.23.23,0,0,0,.13.44c.25,0,.48-.11.72-.18a3.75,3.75,0,0,1,1.11,0l-.17.15a.23.23,0,0,0,.12.42,15.52,15.52,0,0,1,4.69.73,5.15,5.15,0,0,1,2.54,1.74c-.57.3-1.15.59-1.71.91-.29.16-.11.54.17.57a23,23,0,0,0,7.72-.38,13,13,0,0,1,1.94-.46c.72-.07,1.33.31,2,.28a7.86,7.86,0,0,0,1.56-.37,9.7,9.7,0,0,1,2.09-.23c2.59,0,5.12.68,7.69.92a38.79,38.79,0,0,0,8-.47l2.34-.3a3.3,3.3,0,0,0,1.57-.46l.16-.12a19.24,19.24,0,0,1-2.92,2.79c-.87.62-1.86-.45-2.73.25-.69.54-.56,1.5-.94,2.2-.52,1-2.14.73-3,.69-1.46-.06-2.91,0-4.37,0a25.13,25.13,0,0,1-4.25,0c-1.43-.2-2.87-.42-4.3-.68a13.81,13.81,0,0,0-3.94-.42,17.62,17.62,0,0,1-2.14.34,7,7,0,0,1-1.92-.44,4.77,4.77,0,0,0-3.32-.24.3.3,0,0,0,.1.58,6.55,6.55,0,0,1,3.65,1.1,48.26,48.26,0,0,1-6.8-.15c-1.32-.14-2.63-.37-4-.51a4.86,4.86,0,0,0-2.76.42A15.09,15.09,0,0,1,71.56,142a23.12,23.12,0,0,0-3.41.79c-2.16,1-4.3,2-6.38,3.14-.23.13,0,.47.22.35l.39-.19a35.09,35.09,0,0,0,6.9-.85A30.77,30.77,0,0,0,76,143.73a16.58,16.58,0,0,1,6.51-1.08,13.28,13.28,0,0,1,1.67.15,5.14,5.14,0,0,1,1.75.57,30.69,30.69,0,0,0,2.79,1.29,13.43,13.43,0,0,0,3.34.57c.58.06,1.1.28,1.68.34a15.5,15.5,0,0,0,1.79.18c.62,0,1.22-.09,1.84-.07s1.24,0,1.86,0c1.23.05,2.47.1,3.7.13,2.42.06,4.84,0,7.26,0a12.53,12.53,0,0,1,3.18.22.79.79,0,0,0,.92.67h.09a1.28,1.28,0,0,1-.5.87,3.69,3.69,0,0,1-1.64.42,3.88,3.88,0,0,0-2.09,1.33,3.17,3.17,0,0,1-2.43,1.36c-.94,0-1.87.18-2.22,1.17a.33.33,0,0,0,0,.26c-3,.15-6,.2-9,.32a44.41,44.41,0,0,1-5.16,0,11.67,11.67,0,0,0-4.17.22,4.89,4.89,0,0,0-1.65.85c-.3.23-.57.52-.89.72a3.87,3.87,0,0,1-1.35.5c-1.7.37-3.42.66-5.13,1l-5.18,1a25.62,25.62,0,0,0-4.8,1.23,14.12,14.12,0,0,0-6.84,5.85.29.29,0,0,0,.45.34c1.42-1.49,3.17-3.19,5.33-3.22l-1.74,1.37a.25.25,0,0,0,.26.42,24.45,24.45,0,0,1,8.4-2.15,71.55,71.55,0,0,0,8.28-.75c1.39-.3,2.76-.69,4.16-1a35.74,35.74,0,0,1,4.27-.47c.68-.05,1.34-.14,2-.13s1.51,0,2.27,0c1.48,0,3,.1,4.44.15,3,.09,6,.13,9,0a10.62,10.62,0,0,1-2.84.83,13.83,13.83,0,0,1-3.68-.38,10.25,10.25,0,0,0-3.52.39c-1.34.28-2.69.55-4,.85a.37.37,0,0,0,0,.71,67.78,67.78,0,0,0,13,1c-1.67,1-4,.64-5.92.69a19,19,0,0,0-3.9.71,28.31,28.31,0,0,1-4.21.51,30.06,30.06,0,0,0-7.43,2,41.42,41.42,0,0,1-7.08,2,22.71,22.71,0,0,0-3.43.79,5.45,5.45,0,0,0-2.76,1.77c-.31.46.24,1,.72.89,2.2-.68,4.4-1.29,6.63-1.83a20.15,20.15,0,0,0,4-1.43.82.82,0,0,0,.11.88c.37.39,1,.09,1.38-.09.68-.3,1.3-.74,2-1,1.57-.58,3.27-.25,4.89-.21,1.78,0,3.49-.33,5.24-.39a.8.8,0,0,0,.32-1.52,17.72,17.72,0,0,1,1.92-.05c.78,0,1.58-.08,2.38-.08a.92.92,0,0,0,.24.93,19.3,19.3,0,0,0-3,.54c-1.7.47-3.37,1.05-5.07,1.53a35.84,35.84,0,0,1-5,1.07,35.19,35.19,0,0,0-4.43.81,10.89,10.89,0,0,0-3.91,1.95,18.15,18.15,0,0,1-3.64,2.83,4.11,4.11,0,0,0-1.64,1,11.59,11.59,0,0,0-1.27,2.35c-.85,1.67-1.66,3.35-2.48,5-.44.92-.9,1.84-1.34,2.77a6.74,6.74,0,0,0-.75,2.63,2.68,2.68,0,0,0,2.37,2.81.42.42,0,0,0,.4-.41,19.63,19.63,0,0,1,.36-4.34,8.51,8.51,0,0,0,1.42-2.7c.48-1.33.91-2.87,2.18-3.67A9.57,9.57,0,0,0,78.93,179a5.53,5.53,0,0,1,2.36-1.46c2-.7,3.92-1.39,5.93-1.9a24,24,0,0,1,6.25-.76,19.08,19.08,0,0,0,3.12-.13,20.58,20.58,0,0,1,2.91-.5,29.1,29.1,0,0,1,3.35.38c1,.13,2,.27,3,.37s2.17.18,3.25.22a6.32,6.32,0,0,0,2.81-.15c.46-.23.54-.57.82-.94s.44-.16.72-.09c.6.14,1.21.5,1.86.29a1.26,1.26,0,0,0,.68-.54l.11-.16a98.05,98.05,0,0,1,10.77,8.17,38.42,38.42,0,0,0,5.12,4.24c1.44.88,3.42,1.35,4.24,3s1,3.46,3,3.85a.75.75,0,0,0,.64-1.28l.83-.9c.34.27,1,.12,1-.46a1.49,1.49,0,0,0-.52-1.07,5.47,5.47,0,0,0-1.73-.78c-1.06-.38-1.15-1.54-1.4-2.49a3.21,3.21,0,0,0-1.67-2.26c-.54-.26-1.13-.43-1.67-.71a9.67,9.67,0,0,1-1.84-1.26c-1-.9-2-1.92-3.06-2.79a23.22,23.22,0,0,0-3.29-2.19c-1.12-.63-2.3-1.18-3.41-1.83a10.38,10.38,0,0,1-3-2.65,21,21,0,0,0-1.41-1.71,8.92,8.92,0,0,0-1.58-1.16c-1-.63-2-1.24-2.94-1.88,2.39.22,4.79.15,7.19.23a18.41,18.41,0,0,1,8,2,29.7,29.7,0,0,0,3.39,1.56c1.22.43,2.49.47,3.73.8a10.67,10.67,0,0,1,1.68,1c.64.3,1.32.48,2,.76a20,20,0,0,1,3.45,1.91,23.67,23.67,0,0,1,2.91,2.66,9,9,0,0,0,1.8,1.47.93.93,0,0,0,.25.44.7.7,0,0,0,1,0,.45.45,0,0,0,.2-.61,1.24,1.24,0,0,0-.42-.82l-.24-.14,0,0c-.1-.1-.18-.19-.28-.28-.41-.35-.7-.81-1.14-1.13s-1-.54-1.49-.84a1.59,1.59,0,0,1-.59-.59,1.14,1.14,0,0,1-.11-.79c0-.14-.16-.29-.29-.17a2.18,2.18,0,0,0-.94-1.19c-.26-.12-.49-.12-.75-.26a4.49,4.49,0,0,0-.78-.34,8.23,8.23,0,0,0-.86-.19l-.38-.05c-.14,0-.45.1-.29-.13a1.78,1.78,0,0,1,.92-.24c.42,0,.67.22,1.11,0,.78-.33.78-1.6-.07-1.7a4.94,4.94,0,0,0-1.52-1.6,18,18,0,0,0-2.25-1.5,15.53,15.53,0,0,0-5.28-1.72c-.45-.07-.9-.11-1.35-.15a1.73,1.73,0,0,0-.68,0c-.3.09-.42.27-.75.27a27,27,0,0,1-3-.31,18.42,18.42,0,0,1-5.6-1.44,17.18,17.18,0,0,0-5.08-1.86,4.56,4.56,0,0,0,.27-.46,1.13,1.13,0,0,0,0-.79c-.23-.66-1-.91-1.57-1.16-.9-.36-1.78-.75-2.65-1.16a2.91,2.91,0,0,1-.86-.52.65.65,0,0,1-.26-.64.46.46,0,0,1,.07-.16l0,0c.85.14,1.67.26,2.52.34a14.68,14.68,0,0,1,3,.45,18.52,18.52,0,0,0,2.39.78,23.27,23.27,0,0,0,2.77.17,27.65,27.65,0,0,0,5.53-.2,10.13,10.13,0,0,1,2.39-.27c1,.07,2,.31,3,.48,1.79.32,3.58.61,5.36,1a11.47,11.47,0,0,1,4.45,1.58c.63.43,1.09,1.05,1.74,1.44A5.94,5.94,0,0,0,148,164a2.77,2.77,0,0,1,1.82.78,8.7,8.7,0,0,1,1.08,2.1,36.12,36.12,0,0,1,2.11,5.79c.23,1,.32,2,.52,3a10.86,10.86,0,0,0-.75,4,10.61,10.61,0,0,0,1,4.46.8.8,0,0,0,1.23.13,4.35,4.35,0,0,0,.69-5.68,4.89,4.89,0,0,0,0-1.15c.1-.76.21-1.51.3-2.26a6.06,6.06,0,0,1,.5-2.28,2.41,2.41,0,0,0-.07-2.3c-.61-1.75-1.1-3.54-1.75-5.27s-1.32-3.42-2.09-5.06a3.69,3.69,0,0,0-1.38-1.69,12.3,12.3,0,0,0-2.33-1,33,33,0,0,0-4.85-1.37c-3.26-.69-6.59-1.09-9.89-1.47-1.9-.22-3.8-.41-5.68-.74a10.79,10.79,0,0,1-4.58-1.64l.14-.3a.61.61,0,0,0-.39-.88,10.58,10.58,0,0,1-4.77-3c-.41-.39-.83-.82-1.27-1.23.73-.35,1.41-.9,2.06-1.24a5.38,5.38,0,0,1,5.48-.32,11.62,11.62,0,0,0,1.91.41c1.32.29,2.64.81,3.93,1.21a.49.49,0,0,0,.61-.26,14.9,14.9,0,0,0,2.37,1,27.72,27.72,0,0,0,3.79,1c.27.05.57-.19.46-.48s-.25-.68-.38-1a27,27,0,0,1,5.76.1c1.11.1,2.21.2,3.31.35a2.43,2.43,0,0,1,.59.1c.25.13.3.41.43.62a1.76,1.76,0,0,0,.61.63c1.21.77,2.88.24,4.22.59,1,.25,1.93.61,2.89.93a11.82,11.82,0,0,0,2.92.88.37.37,0,0,0,.25-.08,8.14,8.14,0,0,0,1.77.73,5.27,5.27,0,0,1,1.57.65,4.73,4.73,0,0,1,1,1.39,2.33,2.33,0,0,0,1.35.92,2.53,2.53,0,0,1,1.42,1.43,12,12,0,0,0,2.15,2.84l0,.41.5,0C169.14,160.15,170,159.24,169.38,158.75ZM145,135c1-.22,1.74.28,2.67.57.71.23,1.51-.17,2.12.28s1.14.92,1.74,1.34l-.24-.07c-1.77-.45-3.56-.84-5.36-1.15-.86-.15-1.72-.29-2.59-.41l-.48-.08C143.59,135.4,144.27,135.19,145,135Zm-27.62-7c-.22.14-.45.26-.68.39a2.6,2.6,0,0,0,0,1.19c.12.34.42.57.25,1s-.64.51-1,.68l-1.05.57a2.62,2.62,0,0,0,.57.12.34.34,0,0,1,.23.11.42.42,0,0,1-.26.75,1.3,1.3,0,0,1-.54.23,5.66,5.66,0,0,1-1,.08.34.34,0,0,1-.38.2c-.45-.09-.91-.16-1.36-.23-1.53,0-3-.08-4.56-.2a.25.25,0,0,1-.23-.17h-.09l-.12,0a.34.34,0,0,1-.26-.16c-.8.1-1.58.18-1.73.21-.41.08-.76-.51-.32-.72a11.12,11.12,0,0,1,4.82-.78c.88,0,1.77,0,2.65-.08l.41,0,.11-.06,0,0a.41.41,0,0,1,.16-.69l.1,0a.48.48,0,0,1,.11-.95c.41-.06.83-.09,1.24-.11a.32.32,0,0,1,0-.51c.07,0,.15-.06.21-.1l0-.05a12.12,12.12,0,0,0,1.27-.71,1.07,1.07,0,0,1,1.26-.68A.46.46,0,0,1,117.37,128ZM79.82,168.7c-1.57.36-3.14.65-4.72.92a7.09,7.09,0,0,1,1.07-.53,17.35,17.35,0,0,1,3.09-.73,34.56,34.56,0,0,0,5.59-1.56A22.27,22.27,0,0,1,79.82,168.7Zm28,.24a7.29,7.29,0,0,1-1.24.2c-.4.06-.8.14-1.2.19l-.88.11.1,0c.24.06.29.48,0,.53l-1.41.27-.21,0,.17,0a.19.19,0,0,1,.14.26l1.11.11c.38,0,.4.63,0,.6l-1.12-.1a.3.3,0,0,1-.3.26l-2.06.05a6.31,6.31,0,0,0-1.49.58,9.34,9.34,0,0,1-3.2.91,34.53,34.53,0,0,1-3.67.07c-1.3,0-2.61,0-3.92,0a.36.36,0,0,1,0-.71c2.56-.35,5.14-.52,7.72-.72a.24.24,0,0,1,.23-.14l.42,0,.21,0a.23.23,0,0,1-.07-.07c-.75-.15-1.51-.27-2.27-.37-.28,0-.29-.51,0-.56a27.66,27.66,0,0,1,6.75-.3v0a.12.12,0,0,1,.15-.08h0a.19.19,0,0,1,.12,0l.34-.1.7-.14.35-.07-.49-.11c-.28-.05-.32-.53,0-.58.84-.14,1.69-.2,2.54-.29.41-.05.83-.05,1.25-.09a6.59,6.59,0,0,1,1.25-.06C108,168.59,108,168.88,107.8,168.94Zm38.94,8.36a3.41,3.41,0,0,1,1.3,1.11,1,1,0,0,1,.15.37.83.83,0,0,0,.06.21.06.06,0,0,1,0,0v0a5.53,5.53,0,0,1-1.79-1.52c-.2-.25-.41-.49-.61-.73C146.13,177,146.45,177.13,146.74,177.3ZM145,175.82s0,.08,0,.11a.27.27,0,0,1-.07-.08S145,175.83,145,175.82Zm-1.89-1.9a3.78,3.78,0,0,1,.34.73c-.83-.58-1.69-1.12-2.52-1.69l0,0A3.1,3.1,0,0,1,143.12,173.92ZM114.6,165.2c.87.11,1.69.39,2.55.58.41.09.66-.1,1-.16a5.44,5.44,0,0,1,1.21,0,4.62,4.62,0,0,1,1.12.3,8.33,8.33,0,0,0,1.38.39c.38.09.75.23,1.13.31a12.54,12.54,0,0,1,1.33.27c.09,0,.08.18,0,.18a7.9,7.9,0,0,1-1.19-.15c-.42-.06-.85,0-1.28-.08a7.77,7.77,0,0,0-1.36-.09,5,5,0,0,1-2.41-.43,2.38,2.38,0,0,1-.3-.18,1.36,1.36,0,0,0-1-.33,15.5,15.5,0,0,1-2.35-.26C114.24,165.53,114.35,165.17,114.6,165.2Zm-1.93-14.47h-.07a.25.25,0,0,1-.13.27l-.16.1a.28.28,0,0,1-.06.4,1,1,0,0,1-.35.15,3.35,3.35,0,0,0-1,.71l0,0a.32.32,0,0,1-.23.6.79.79,0,0,0-.22,0l-.73,1a.36.36,0,0,1,.06.41.44.44,0,0,0,.26.26.27.27,0,0,1-.05.5,14.74,14.74,0,0,1-5.5.29c-2.06-.12-4.12-.23-6.18-.31a.36.36,0,0,1,0-.72l7.31-.46a20.12,20.12,0,0,0,2.13-.12,1.23,1.23,0,0,1,.66-.37.31.31,0,0,1,.24-.48l.08,0h0a.88.88,0,0,0,.32,0,.25.25,0,0,1,0-.29.32.32,0,0,1,.11-.61h.19a1.58,1.58,0,0,0,.61-.12,1.51,1.51,0,0,1,1.6-1.47.1.1,0,0,0,.07-.19.13.13,0,0,1-.06-.07,0,0,0,0,0,0,0h0a.26.26,0,0,1,.28-.31c.15,0,.27.14.42.18h.45A.3.3,0,0,1,112.67,150.73ZM118,134.34a2.24,2.24,0,0,1,2.9-.28,15,15,0,0,1-2.91,2,5.9,5.9,0,0,1,.59-1.07C118.81,134.63,118.33,134.21,118,134.34Zm-.08,18.1.07,0a.44.44,0,0,1,.07-.21h0a.28.28,0,0,1,.11-.45,3.73,3.73,0,0,1,.63-.18.22.22,0,0,1,.08-.39,1.46,1.46,0,0,1,1.35.37c.22.2,0,.48-.25.45a3.25,3.25,0,0,0-.54,0,.6.6,0,0,1-.07.2,1.88,1.88,0,0,1-.25.24.4.4,0,0,1,0,.19,2.19,2.19,0,0,0,.6.33.34.34,0,0,1,.22.48l.69.09c.32.05.35.36.2.57l.66.19.2,0h2.38c.37,0,.5.61.11.68h-.13l-.12,0v0a7,7,0,0,0,1.77.15.28.28,0,0,1,.28.38,8.13,8.13,0,0,1,1.84-.16.22.22,0,0,1,0,.43c-.92.06-1.82.32-2.74.35a11.66,11.66,0,0,1-2.63-.24c-1.92-.33-3.82-.79-5.73-1.16a.35.35,0,0,1-.1-.63,5.94,5.94,0,0,1,.82-.35c-.61-.05-1.22-.09-1.82-.18h-.06a.23.23,0,0,1,0-.45h0a1.05,1.05,0,0,1-.11-.07.26.26,0,0,1,.17-.45l.93-.09.09,0,.08,0h0a2.09,2.09,0,0,1,.61,0h.1Zm10.46-8.21a12.54,12.54,0,0,1-2.67,0c-.9-.11-1.76-.38-2.64-.57a15.66,15.66,0,0,0-4.78-.15c-.19.5-.94.44-1.38.45-1,0-2,0-3.05-.09a.27.27,0,0,1,0-.54c.93,0,1.86-.11,2.79-.22a.34.34,0,0,1-.09-.6,2.07,2.07,0,0,0,.58-.44s.73-1.06.24-.94a.33.33,0,0,1-.37-.46,1.39,1.39,0,0,1,2.12,0s0,.06,0,.08a25.64,25.64,0,0,1,7.44,2.36.3.3,0,0,1,0,.51l1.79.46A.08.08,0,0,1,128.34,144.23Z"/></g></svg>